<?xml version="1.0" standalone="no"?>
<!DOCTYPE svg PUBLIC "-//W3C//DTD SVG 20010904//EN"
 "http://www.w3.org/TR/2001/REC-SVG-20010904/DTD/svg10.dtd">
<svg version="1.0" xmlns="http://www.w3.org/2000/svg"
 width="512.000000pt" height="512.000000pt" viewBox="0 0 512.000000 512.000000"
 preserveAspectRatio="xMidYMid meet">
<metadata>
Created by potrace 1.14, written by Peter Selinger 2001-2017
</metadata>
<g transform="translate(0.000000,512.000000) scale(0.100000,-0.100000)"
fill="#000000" stroke="none">
<path d="M860 5105 c-400 -63 -716 -354 -831 -765 l-24 -85 -3 -1630 c-2
-1171 0 -1656 8 -1723 29 -234 128 -437 292 -600 161 -160 347 -254 568 -287
142 -22 3238 -22 3380 0 222 33 412 130 568 287 161 162 254 347 288 568 21
142 21 3239 -1 3381 -66 443 -410 787 -855 854 -135 21 -3258 20 -3390 0z
m1382 -787 c112 -52 195 -157 218 -277 5 -29 10 -141 10 -248 l0 -194 -242 3
-243 3 -57 28 c-79 39 -143 104 -181 185 -29 60 -32 76 -32 157 0 77 5 99 28
148 46 100 121 172 218 207 78 29 203 24 281 -12z m950 -2 c76 -36 144 -106
182 -186 l31 -65 3 -539 c2 -472 1 -545 -13 -595 -31 -105 -98 -187 -193 -235
-227 -115 -495 22 -542 276 -7 38 -10 239 -8 570 3 509 3 513 26 570 39 97
122 176 230 219 72 29 208 22 284 -15z m-1001 -922 c143 -42 242 -153 269
-302 36 -198 -104 -393 -309 -432 -72 -13 -1001 -13 -1072 0 -119 23 -224 105
-277 218 -24 50 -27 69 -27 157 0 89 3 106 27 156 49 99 153 184 255 208 21 5
272 9 559 10 448 1 528 -1 575 -15z m1941 -21 c76 -36 149 -107 186 -182 24
-50 27 -67 27 -156 0 -88 -3 -107 -27 -157 -53 -113 -158 -195 -277 -218 -29
-5 -141 -10 -248 -10 l-194 0 3 243 3 242 28 57 c48 99 129 167 242 205 66 21
183 11 257 -24z m-2614 -1145 l-3 -243 -28 -57 c-39 -79 -104 -143 -185 -181
-60 -28 -77 -32 -157 -32 -80 0 -97 4 -155 31 -79 37 -150 107 -188 183 -24
50 -27 67 -27 156 0 88 3 107 27 157 51 110 156 195 268 217 25 5 136 9 248
10 l203 1 -3 -242z m695 216 c101 -35 192 -126 234 -234 16 -40 18 -97 21
-558 2 -332 -1 -532 -8 -570 -22 -122 -104 -227 -218 -280 -50 -24 -69 -27
-157 -27 -89 0 -106 3 -156 27 -76 38 -146 109 -183 188 l-31 65 -3 539 c-3
594 -3 600 60 698 92 146 277 209 441 152z m1828 16 c119 -23 224 -105 277
-218 24 -50 27 -69 27 -157 0 -89 -3 -106 -27 -156 -38 -76 -109 -146 -188
-183 l-65 -31 -539 -3 c-472 -2 -545 -1 -595 13 -143 42 -241 151 -271 301
-38 192 103 394 300 433 64 13 1015 13 1081 1z m-849 -973 c79 -39 143 -104
181 -185 28 -60 32 -77 32 -157 0 -80 -4 -97 -31 -155 -37 -79 -107 -150 -183
-188 -50 -24 -67 -27 -156 -27 -93 0 -105 2 -167 33 -83 41 -158 120 -189 200
-21 52 -23 77 -27 285 l-4 228 244 -3 243 -3 57 -28z"/>
</g>
</svg>
